<svg width="117" height="117" viewBox="0 0 117 117" fill="none" xmlns="http://www.w3.org/2000/svg">
<path fill-rule="evenodd" clip-rule="evenodd" d="M59.0977 101.603L64.5977 115.603L81.0977 111.103L78.5977 96.6025C81.5977 94.6025 87.8977 90.2025 89.0977 88.6025C91.0977 89.4025 98.931 92.9359 102.598 94.6025L112.098 80.6025L100.098 71.1025C100.931 69.4359 102.498 64.3025 102.098 57.1025C104.498 55.9025 112.098 52.9359 115.598 51.6025L111.598 35.1025L96.5977 37.1025C94.7643 34.2692 90.4977 28.2025 88.0977 26.6025C89.2977 24.6025 92.5977 16.7692 94.0977 13.1025L79.5977 4.60254L71.0977 15.6025C67.7643 14.9359 60.1977 13.8025 56.5977 14.6025C55.7977 12.2025 52.5977 4.26921 51.0977 0.602539L35.0977 5.10254L37.0977 20.1025C34.5977 21.1025 28.9977 24.1025 26.5977 28.1025C24.1977 26.9025 16.5977 23.6025 13.0977 22.1025L4.09766 36.6025L16.0977 45.1025C15.431 49.1025 14.1977 57.5025 14.5977 59.1025C10.9977 60.3025 3.76432 63.2692 0.597656 64.6025L5.09766 81.1025L20.0977 78.6025C21.5977 81.2692 25.1977 87.1025 27.5977 89.1025C26.7977 90.7025 23.2643 98.7692 21.5977 102.603L36.5977 111.603L45.0977 99.6025C47.7643 100.269 54.2977 101.603 59.0977 101.603ZM58.0976 34.6025C92.5976 38.1025 86.0976 83.1025 56.0976 81.6025C45.5977 81.0775 38.0977 72.6025 35.5976 64.6025C30.3976 44.6025 47.5977 34.6025 58.0976 34.6025Z" fill="white" stroke="black"/>
</svg>
